<svg xmlns="http://www.w3.org/2000/svg" viewBox="0 0 960 1440" role="img" aria-labelledby="title desc">
  <title id="title">웨딩 청첩장 커버</title>
  <desc id="desc">부드러운 빛과 꽃잎이 있는 세로형 웨딩 커버 이미지</desc>
  <defs>
    <linearGradient id="sky" x1="0" x2="1" y1="0" y2="1">
      <stop offset="0" stop-color="#f8ede8"/>
      <stop offset=".43" stop-color="#d8c4bc"/>
      <stop offset="1" stop-color="#6f7d69"/>
    </linearGradient>
    <radialGradient id="light" cx=".5" cy=".28" r=".58">
      <stop offset="0" stop-color="#fffdfa" stop-opacity=".92"/>
      <stop offset=".42" stop-color="#fff7ee" stop-opacity=".34"/>
      <stop offset="1" stop-color="#fff7ee" stop-opacity="0"/>
    </radialGradient>
    <filter id="soft">
      <feGaussianBlur stdDeviation="18"/>
    </filter>
  </defs>
  <rect width="960" height="1440" fill="url(#sky)"/>
  <rect width="960" height="1440" fill="url(#light)"/>
  <g opacity=".26" filter="url(#soft)">
    <circle cx="160" cy="240" r="82" fill="#ffffff"/>
    <circle cx="818" cy="458" r="110" fill="#fff0e1"/>
    <circle cx="292" cy="850" r="134" fill="#ffe0dc"/>
  </g>
  <g opacity=".66" fill="none" stroke-linecap="round">
    <path d="M149 1128c140-88 268-146 382-172 92-20 184-18 276 8" stroke="#fff8f0" stroke-width="8"/>
    <path d="M103 1194c164-96 310-144 438-144 91 0 190 24 298 72" stroke="#314037" stroke-opacity=".25" stroke-width="7"/>
  </g>
  <g transform="translate(60 876)">
    <path d="M108 296C176 160 300 72 480 32c168-36 304-8 408 84" fill="none" stroke="#53634e" stroke-opacity=".52" stroke-width="12" stroke-linecap="round"/>
    <g fill="#fffaf6">
      <ellipse cx="144" cy="258" rx="54" ry="22" transform="rotate(-32 144 258)"/>
      <ellipse cx="202" cy="206" rx="48" ry="20" transform="rotate(-22 202 206)"/>
      <ellipse cx="292" cy="152" rx="50" ry="21" transform="rotate(-16 292 152)"/>
      <ellipse cx="394" cy="112" rx="56" ry="22" transform="rotate(-8 394 112)"/>
      <ellipse cx="512" cy="86" rx="54" ry="22" transform="rotate(6 512 86)"/>
      <ellipse cx="654" cy="92" rx="50" ry="20" transform="rotate(18 654 92)"/>
      <ellipse cx="766" cy="142" rx="48" ry="20" transform="rotate(30 766 142)"/>
    </g>
    <g fill="#bd7a81" opacity=".92">
      <circle cx="164" cy="254" r="10"/>
      <circle cx="314" cy="148" r="8"/>
      <circle cx="542" cy="84" r="9"/>
      <circle cx="744" cy="138" r="10"/>
    </g>
  </g>
</svg>
