<svg xmlns="http://www.w3.org/2000/svg" viewBox="0 0 960 1280" role="img" aria-labelledby="title desc">
  <title id="title">초록 식물 라인의 청첩장 커버</title>
  <desc id="desc">흰색 바탕에 초록 식물 라인과 부드러운 빛이 있는 모바일 청첩장 커버 이미지</desc>
  <defs>
    <linearGradient id="bg" x1="0" x2="0" y1="0" y2="1">
      <stop offset="0" stop-color="#ffffff"/>
      <stop offset=".62" stop-color="#f0f8f4"/>
      <stop offset="1" stop-color="#ffffff"/>
    </linearGradient>
    <radialGradient id="soft" cx=".5" cy=".32" r=".62">
      <stop offset="0" stop-color="#ffffff" stop-opacity=".96"/>
      <stop offset=".62" stop-color="#46a477" stop-opacity=".1"/>
      <stop offset="1" stop-color="#46a477" stop-opacity="0"/>
    </radialGradient>
  </defs>
  <rect width="960" height="1280" fill="url(#bg)"/>
  <rect width="960" height="1280" fill="url(#soft)"/>
  <circle cx="480" cy="520" r="228" fill="#ffffff" stroke="#dce8e2" stroke-width="3" opacity=".82"/>
  <g fill="none" stroke-linecap="round" stroke-linejoin="round">
    <path d="M142 914c126-156 282-242 468-258 72-6 142-2 208 12" stroke="#03462e" stroke-width="8" opacity=".56"/>
    <path d="M170 944c94-74 194-118 300-132" stroke="#46a477" stroke-width="6" opacity=".72"/>
    <path d="M570 662c-22-92-4-178 54-258" stroke="#1e6f54" stroke-width="6" opacity=".54"/>
    <path d="M650 658c34-74 92-126 174-156" stroke="#1e6f54" stroke-width="6" opacity=".5"/>
    <path d="M434 816c-68-48-104-112-108-192" stroke="#1e6f54" stroke-width="6" opacity=".46"/>
  </g>
  <g fill="#ffffff" stroke="#1e6f54" stroke-width="5" opacity=".95">
    <ellipse cx="384" cy="808" rx="52" ry="18" transform="rotate(-26 384 808)"/>
    <ellipse cx="520" cy="682" rx="50" ry="18" transform="rotate(-42 520 682)"/>
    <ellipse cx="616" cy="530" rx="46" ry="17" transform="rotate(-58 616 530)"/>
    <ellipse cx="704" cy="584" rx="50" ry="18" transform="rotate(-28 704 584)"/>
    <ellipse cx="806" cy="502" rx="48" ry="17" transform="rotate(-20 806 502)"/>
    <ellipse cx="324" cy="628" rx="46" ry="17" transform="rotate(58 324 628)"/>
    <ellipse cx="250" cy="902" rx="48" ry="17" transform="rotate(-18 250 902)"/>
  </g>
  <g fill="#46a477" opacity=".7">
    <circle cx="452" cy="754" r="8"/>
    <circle cx="650" cy="656" r="8"/>
    <circle cx="754" cy="542" r="8"/>
    <circle cx="312" cy="852" r="8"/>
  </g>
</svg>
